<svg xmlns="http://www.w3.org/2000/svg" viewBox="-4 -6 128 128" role="img" aria-label="Rango oro"><defs>
      <linearGradient id="vr-oro-f-metal" x1="0" y1="0" x2="0" y2="1">
        <stop offset="0" stop-color="#fff4c2"/><stop offset=".45" stop-color="#e8b53a"/><stop offset="1" stop-color="#7a5108"/>
      </linearGradient>
      <linearGradient id="vr-oro-f-rim" x1="0" y1="0" x2="1" y2="1">
        <stop offset="0" stop-color="#fff4c2"/><stop offset=".5" stop-color="#e8b53a"/><stop offset="1" stop-color="#7a5108"/>
      </linearGradient>
      <linearGradient id="vr-oro-f-dark" x1="0" y1="0" x2="0" y2="1">
        <stop offset="0" stop-color="#7a5108"/><stop offset="1" stop-color="#1f1503"/>
      </linearGradient>
      <radialGradient id="vr-oro-f-face" cx=".5" cy=".3" r=".8">
        <stop offset="0" stop-color="#7a5108"/><stop offset=".7" stop-color="#1f1503"/><stop offset="1" stop-color="#050608"/>
      </radialGradient>
      <linearGradient id="vr-oro-f-wing" x1="1" y1="0" x2="0" y2="1">
        <stop offset="0" stop-color="#e8b53a"/><stop offset="1" stop-color="#7a5108"/>
      </linearGradient>
      <linearGradient id="vr-oro-f-hi" x1="0" y1="0" x2="0" y2="1">
        <stop offset="0" stop-color="#fff4c2"/><stop offset="1" stop-color="#fff4c2" stop-opacity="0"/>
      </linearGradient>
      <linearGradient id="vr-oro-f-acc" x1="0" y1="0" x2="0" y2="1">
        <stop offset="0" stop-color="#ffffff"/><stop offset="1" stop-color="#ffd86b"/>
      </linearGradient>
      <linearGradient id="vr-oro-f-sheen" x1="0" y1="0" x2="1" y2="1">
        <stop offset="0" stop-color="#fff" stop-opacity=".55"/><stop offset=".35" stop-color="#fff" stop-opacity="0"/>
      </linearGradient>
      <radialGradient id="vr-oro-f-ray" cx=".5" cy=".5" r=".5">
        <stop offset=".2" stop-color="#ffd86b" stop-opacity=".9"/><stop offset="1" stop-color="#e8b53a" stop-opacity="0"/>
      </radialGradient>
      <linearGradient id="vr-oro-f-flame" x1="0" y1="1" x2="0" y2="0">
        <stop offset="0" stop-color="#7a5108"/><stop offset=".5" stop-color="#e8b53a"/><stop offset="1" stop-color="#ffd86b"/>
      </linearGradient>
      <linearGradient id="vr-oro-f-gold" x1="0" y1="0" x2="0" y2="1">
        <stop offset="0" stop-color="#fff3c4"/><stop offset=".5" stop-color="#f2b843"/><stop offset="1" stop-color="#7a4a06"/>
      </linearGradient>
      <radialGradient id="vr-oro-f-halo" cx=".5" cy=".5" r=".5">
        <stop offset="0" stop-color="#e8b53a" stop-opacity=".55"/><stop offset="1" stop-color="#e8b53a" stop-opacity="0"/>
      </radialGradient>
    </defs><g><path d="M36 45 L17 39 Q23 53 37 56 L36 60 Z" fill="url(#vr-oro-f-wing)" stroke="url(#vr-oro-f-rim)" stroke-width="1.3" stroke-linejoin="round"/><path d="M36 48 L21 41" stroke="url(#vr-oro-f-hi)" stroke-width="1" opacity=".6"/><path d="M36 34 L12 24 Q18 38 32 41 L36 49 Z" fill="url(#vr-oro-f-wing)" stroke="url(#vr-oro-f-rim)" stroke-width="1.3" stroke-linejoin="round"/><path d="M36 37 L16 26" stroke="url(#vr-oro-f-hi)" stroke-width="1" opacity=".6"/></g><g transform="translate(120 0) scale(-1 1)"><path d="M36 45 L17 39 Q23 53 37 56 L36 60 Z" fill="url(#vr-oro-f-wing)" stroke="url(#vr-oro-f-rim)" stroke-width="1.3" stroke-linejoin="round"/><path d="M36 48 L21 41" stroke="url(#vr-oro-f-hi)" stroke-width="1" opacity=".6"/><path d="M36 34 L12 24 Q18 38 32 41 L36 49 Z" fill="url(#vr-oro-f-wing)" stroke="url(#vr-oro-f-rim)" stroke-width="1.3" stroke-linejoin="round"/><path d="M36 37 L16 26" stroke="url(#vr-oro-f-hi)" stroke-width="1" opacity=".6"/></g><g transform="translate(60 60) scale(1) translate(-60 -60)"><path d="M60 10 L71 19 L93 23 V60 C93 82 78 96 60 107 C42 96 27 82 27 60 V23 L49 19 Z" transform="translate(0 3)" fill="#000" opacity=".45"/><path d="M60 10 L71 19 L93 23 V60 C93 82 78 96 60 107 C42 96 27 82 27 60 V23 L49 19 Z" fill="url(#vr-oro-f-rim)" stroke="url(#vr-oro-f-dark)" stroke-width="1.5" stroke-linejoin="round"/><path d="M60 10 L71 19 L93 23 V60 C93 82 78 96 60 107 C42 96 27 82 27 60 V23 L49 19 Z" transform="translate(60 60) scale(.8) translate(-60 -60)" fill="url(#vr-oro-f-face)" stroke="url(#vr-oro-f-hi)" stroke-width="1.2" stroke-linejoin="round"/><path d="M39 43 H52 L60 59 L68 43 H81 L60 82 Z" fill="url(#vr-oro-f-metal)" stroke="url(#vr-oro-f-dark)" stroke-width="1.2" stroke-linejoin="round"/><path d="M39 43 H52 L60 59 L57 59 Z" fill="#fff" opacity=".35"/><path d="M56 87 l3 3 l-3 3 l-3 -3 Z" fill="url(#vr-oro-f-acc)"/><path d="M64 87 l3 3 l-3 3 l-3 -3 Z" fill="url(#vr-oro-f-acc)"/><path d="M60 16 l5 6 l-5 6 l-5 -6 Z" fill="url(#vr-oro-f-acc)" stroke="url(#vr-oro-f-dark)" stroke-width=".8"/><path d="M60 10 L71 19 L93 23 V60 C93 82 78 96 60 107 C42 96 27 82 27 60 V23 L49 19 Z" fill="url(#vr-oro-f-sheen)" opacity=".5"/></g></svg>
