<svg xmlns="http://www.w3.org/2000/svg" viewBox="-4 -6 128 128" role="img" aria-label="Rango platino"><defs>
      <linearGradient id="vr-platino-f-metal" x1="0" y1="0" x2="0" y2="1">
        <stop offset="0" stop-color="#d4fff8"/><stop offset=".45" stop-color="#35cbbd"/><stop offset="1" stop-color="#0c5852"/>
      </linearGradient>
      <linearGradient id="vr-platino-f-rim" x1="0" y1="0" x2="1" y2="1">
        <stop offset="0" stop-color="#d4fff8"/><stop offset=".5" stop-color="#35cbbd"/><stop offset="1" stop-color="#0c5852"/>
      </linearGradient>
      <linearGradient id="vr-platino-f-dark" x1="0" y1="0" x2="0" y2="1">
        <stop offset="0" stop-color="#0c5852"/><stop offset="1" stop-color="#04201e"/>
      </linearGradient>
      <radialGradient id="vr-platino-f-face" cx=".5" cy=".3" r=".8">
        <stop offset="0" stop-color="#0c5852"/><stop offset=".7" stop-color="#04201e"/><stop offset="1" stop-color="#050608"/>
      </radialGradient>
      <linearGradient id="vr-platino-f-wing" x1="1" y1="0" x2="0" y2="1">
        <stop offset="0" stop-color="#35cbbd"/><stop offset="1" stop-color="#0c5852"/>
      </linearGradient>
      <linearGradient id="vr-platino-f-hi" x1="0" y1="0" x2="0" y2="1">
        <stop offset="0" stop-color="#d4fff8"/><stop offset="1" stop-color="#d4fff8" stop-opacity="0"/>
      </linearGradient>
      <linearGradient id="vr-platino-f-acc" x1="0" y1="0" x2="0" y2="1">
        <stop offset="0" stop-color="#ffffff"/><stop offset="1" stop-color="#8ff5ea"/>
      </linearGradient>
      <linearGradient id="vr-platino-f-sheen" x1="0" y1="0" x2="1" y2="1">
        <stop offset="0" stop-color="#fff" stop-opacity=".55"/><stop offset=".35" stop-color="#fff" stop-opacity="0"/>
      </linearGradient>
      <radialGradient id="vr-platino-f-ray" cx=".5" cy=".5" r=".5">
        <stop offset=".2" stop-color="#8ff5ea" stop-opacity=".9"/><stop offset="1" stop-color="#35cbbd" stop-opacity="0"/>
      </radialGradient>
      <linearGradient id="vr-platino-f-flame" x1="0" y1="1" x2="0" y2="0">
        <stop offset="0" stop-color="#0c5852"/><stop offset=".5" stop-color="#35cbbd"/><stop offset="1" stop-color="#8ff5ea"/>
      </linearGradient>
      <linearGradient id="vr-platino-f-gold" x1="0" y1="0" x2="0" y2="1">
        <stop offset="0" stop-color="#fff3c4"/><stop offset=".5" stop-color="#f2b843"/><stop offset="1" stop-color="#7a4a06"/>
      </linearGradient>
      <radialGradient id="vr-platino-f-halo" cx=".5" cy=".5" r=".5">
        <stop offset="0" stop-color="#35cbbd" stop-opacity=".55"/><stop offset="1" stop-color="#35cbbd" stop-opacity="0"/>
      </radialGradient>
    </defs><g><path d="M36 56 L18 54 Q24 68 38 71 L36 71 Z" fill="url(#vr-platino-f-wing)" stroke="url(#vr-platino-f-rim)" stroke-width="1.3" stroke-linejoin="round"/><path d="M36 59 L22 56" stroke="url(#vr-platino-f-hi)" stroke-width="1" opacity=".6"/><path d="M36 45 L13 39 Q19 53 33 56 L36 60 Z" fill="url(#vr-platino-f-wing)" stroke="url(#vr-platino-f-rim)" stroke-width="1.3" stroke-linejoin="round"/><path d="M36 48 L17 41" stroke="url(#vr-platino-f-hi)" stroke-width="1" opacity=".6"/><path d="M36 34 L8 24 Q14 38 28 41 L36 49 Z" fill="url(#vr-platino-f-wing)" stroke="url(#vr-platino-f-rim)" stroke-width="1.3" stroke-linejoin="round"/><path d="M36 37 L12 26" stroke="url(#vr-platino-f-hi)" stroke-width="1" opacity=".6"/></g><g transform="translate(120 0) scale(-1 1)"><path d="M36 56 L18 54 Q24 68 38 71 L36 71 Z" fill="url(#vr-platino-f-wing)" stroke="url(#vr-platino-f-rim)" stroke-width="1.3" stroke-linejoin="round"/><path d="M36 59 L22 56" stroke="url(#vr-platino-f-hi)" stroke-width="1" opacity=".6"/><path d="M36 45 L13 39 Q19 53 33 56 L36 60 Z" fill="url(#vr-platino-f-wing)" stroke="url(#vr-platino-f-rim)" stroke-width="1.3" stroke-linejoin="round"/><path d="M36 48 L17 41" stroke="url(#vr-platino-f-hi)" stroke-width="1" opacity=".6"/><path d="M36 34 L8 24 Q14 38 28 41 L36 49 Z" fill="url(#vr-platino-f-wing)" stroke="url(#vr-platino-f-rim)" stroke-width="1.3" stroke-linejoin="round"/><path d="M36 37 L12 26" stroke="url(#vr-platino-f-hi)" stroke-width="1" opacity=".6"/></g><g transform="translate(60 60) scale(1) translate(-60 -60)"><path d="M60 9 L94 28 V70 L60 109 L26 70 V28 Z" transform="translate(0 3)" fill="#000" opacity=".45"/><path d="M60 9 L94 28 V70 L60 109 L26 70 V28 Z" fill="url(#vr-platino-f-rim)" stroke="url(#vr-platino-f-dark)" stroke-width="1.5" stroke-linejoin="round"/><path d="M60 9 L94 28 V70 L60 109 L26 70 V28 Z" transform="translate(60 60) scale(.8) translate(-60 -60)" fill="url(#vr-platino-f-face)" stroke="url(#vr-platino-f-hi)" stroke-width="1.2" stroke-linejoin="round"/><g stroke="url(#vr-platino-f-hi)" stroke-width=".9" fill="none" opacity=".45">
        <path d="M60 9 V30 M26 28 L44 38 M94 28 L76 38 M26 70 L44 62 M94 70 L76 62 M60 109 V88"/></g><path d="M39 43 H52 L60 59 L68 43 H81 L60 82 Z" fill="url(#vr-platino-f-metal)" stroke="url(#vr-platino-f-dark)" stroke-width="1.2" stroke-linejoin="round"/><path d="M39 43 H52 L60 59 L57 59 Z" fill="#fff" opacity=".35"/><path d="M52 87 l3 3 l-3 3 l-3 -3 Z" fill="url(#vr-platino-f-acc)"/><path d="M60 87 l3 3 l-3 3 l-3 -3 Z" fill="url(#vr-platino-f-acc)"/><path d="M68 87 l3 3 l-3 3 l-3 -3 Z" fill="url(#vr-platino-f-acc)"/><path d="M60 16 l5 6 l-5 6 l-5 -6 Z" fill="url(#vr-platino-f-acc)" stroke="url(#vr-platino-f-dark)" stroke-width=".8"/><path d="M60 9 L94 28 V70 L60 109 L26 70 V28 Z" fill="url(#vr-platino-f-sheen)" opacity=".5"/></g></svg>
